<svg width="296" height="310" viewBox="0 0 296 310" fill="none" xmlns="http://www.w3.org/2000/svg">
<path d="M205.708 199.204H258C271.807 199.204 283 210.397 283 224.204V272C283 285.807 271.807 297 258 297H205.708H38C24.1929 297 13 285.807 13 272V110.978C13 104.495 15.5188 98.2649 20.0249 93.6032L90.7411 20.4452C100.513 10.3361 116.696 10.2704 126.549 20.2997L198.541 93.5761C203.134 98.2512 205.708 104.543 205.708 111.097V129.887" stroke="white" stroke-width="25"/>
<path d="M171.555 116H88C74.1929 116 63 127.193 63 141V225C63 238.807 74.1587 250 87.9658 250C118.516 250 170.544 250 206 250" stroke="white" stroke-width="25"/>
</svg>
