<svg width="382" height="382" viewBox="0 0 382 382" fill="none" xmlns="http://www.w3.org/2000/svg">
<rect width="382" height="382" rx="50" fill="white"/>
<path d="M244.643 237.834H291.695C305.502 237.834 316.695 249.027 316.695 262.834V304C316.695 317.807 305.502 329 291.695 329H244.643H90C76.1929 329 65 317.807 65 304V156.275C65 149.792 67.5188 143.562 72.0249 138.9L136.262 72.4452C146.033 62.3361 162.217 62.2704 172.07 72.2997L237.476 138.873C242.069 143.548 244.643 149.84 244.643 156.394V173.217" stroke="#172554" stroke-width="25"/>
<path d="M212.804 160.271H136.609C122.802 160.271 111.609 171.464 111.609 185.271V260.187C111.609 273.994 122.8 285.187 136.607 285.187C165.287 285.187 212.52 285.187 244.914 285.187" stroke="#172554" stroke-width="25"/>
</svg>
